<?xml version="1.0" encoding="utf-8"?>
<!-- Generator: Adobe Illustrator 22.0.1, SVG Export Plug-In . SVG Version: 6.00 Build 0)  -->
<svg version="1.1" id="facebook" xmlns="http://www.w3.org/2000/svg" xmlns:xlink="http://www.w3.org/1999/xlink" x="0px" y="0px"
	 viewBox="0 0 600 600" style="enable-background:new 0 0 600 600;" xml:space="preserve">
<style type="text/css">
	.st0{fill:#FFFFFF;}
</style>
<g>
	<path class="st0" d="M455.6,282.4c-0.7,0-1.3,0-1.8,0c-21.7,0-43.4,0-65,0c-1.6,0-1.6,0-1.6-1.5c0-15.7,0-31.4,0.1-47.1
		c0-4,0.7-8,2-11.9c2.7-8.2,8.5-13,16.6-15.3c5.2-1.5,10.6-1.8,16-1.9c11.5-0.1,23,0,34.5,0c0.5,0,1,0,1.6,0c0-20.7,0-41.3,0-62.1
		c-2.3-0.2-4.5-0.6-6.8-0.7c-6.7-0.5-13.5-1.1-20.2-1.3c-10.7-0.3-21.4-0.7-32.1-0.5c-13.5,0.4-26.6,3.3-38.8,9.4
		c-18.7,9.3-31.2,24.1-38.3,43.6c-2.7,7.6-4.5,15.4-5.3,23.4c-0.5,5.2-0.9,10.4-0.9,15.6c-0.1,16.3,0,32.5,0,48.8
		c0,1.5,0,1.5-1.5,1.5c-18.8,0-37.6,0-56.4,0c-0.5,0-1,0-1.7,0c0,0.6,0,1.2,0,1.7c0,22,0,43.9,0,65.9c0,1.8,0,1.8,1.8,1.8
		c18.6,0,37.3,0,55.9,0c2.3,0,2-0.1,2,2c0,57.8,0,115.6,0,173.4c0,2,0.2,1.8-1.9,1.8c-72.1,0-144.2,0-216.2,0
		c-10.2,0-18-4.2-23.2-13c-2-3.5-3.1-7.3-3.1-11.3c0-0.6,0-1.2,0-1.8c0-135.3,0-270.6,0-405.9c0-6.6,1.8-12.5,6.2-17.4
		c4.8-5.5,10.9-8.4,18.2-8.6c0.5,0,0.9,0,1.4,0c135.5,0,270.9,0,406.4,0c11,0,18.8,5.1,23.6,14.9c1.6,3.3,2.2,6.8,2.2,10.5
		c0,0.4,0,0.9,0,1.3c0,134.9,0,269.7,0,404.6c0,6.4-1.5,12.1-5.5,17.1c-4.6,5.7-10.6,8.9-17.9,9.4c-1.7,0.1-3.4,0.2-5.1,0.2
		c-37.1,0-74.3,0-111.4,0c-2,0-1.8,0.1-1.8-1.9c0-57.8,0-115.6,0-173.4c0-0.2,0-0.5,0-0.7c-0.1-0.9,0.2-1.4,1.2-1.2
		c0.4,0,0.7,0,1.1,0c18.5,0,37,0,55.4,0c1.7,0,1.8,0,2-1.7c0.8-6,1.6-12,2.3-18c0.8-5.8,1.5-11.7,2.3-17.5
		c0.8-5.8,1.5-11.7,2.2-17.5c0.6-4.5,1.2-9.1,1.8-13.6C455.6,283.2,455.6,282.9,455.6,282.4z"/>
</g>
</svg>
