<?xml version="1.0" encoding="utf-8"?>
<!-- Generator: Adobe Illustrator 22.0.1, SVG Export Plug-In . SVG Version: 6.00 Build 0)  -->
<svg version="1.1" id="google" xmlns="http://www.w3.org/2000/svg" xmlns:xlink="http://www.w3.org/1999/xlink" x="0px" y="0px"
	 viewBox="0 0 600 600" style="enable-background:new 0 0 600 600;" xml:space="preserve">
<style type="text/css">
	.st0{fill:#FFFFFF;}
</style>
<g>
	<path class="st0" d="M520,257.1c2.9,15.3,4.4,31.3,4.4,48.1C524.4,436,436.8,529,304.6,529c-126.5,0-229-102.5-229-229
		s102.5-229,229-229c61.8,0,113.5,22.8,153.1,59.7l-64.6,64.6v-0.1c-24-22.9-54.5-34.6-88.6-34.6c-75.6,0-137,63.8-137,139.4
		c0,75.6,61.4,139.5,137,139.5c68.6,0,115.2-39.2,124.8-93H304.6v-89.3L520,257.1L520,257.1z"/>
</g>
</svg>
