<?xml version="1.0" encoding="utf-8"?>
<!-- Generator: Adobe Illustrator 22.0.1, SVG Export Plug-In . SVG Version: 6.00 Build 0)  -->
<svg version="1.1" id="linkedin" xmlns="http://www.w3.org/2000/svg" xmlns:xlink="http://www.w3.org/1999/xlink" x="0px" y="0px"
	 viewBox="0 0 600 600" style="enable-background:new 0 0 600 600;" xml:space="preserve">
<style type="text/css">
	.st0{fill:#FFFFFF;}
</style>
<g>
	<path class="st0" d="M491.5,71.1c-127.7,0-255.4,0.1-383.2-0.1c-20,0-36.2,14.8-36,36c0.5,64.4,0.2,128.7,0.2,193.1
		s0,128.7,0,193.1c0,2.9,0,5.8,0.5,8.7c3.2,16.9,16.6,27.2,35.6,27.2c127.4,0,254.9,0,382.3,0c3.2,0,6.4,0,9.5-0.7
		c17-3.5,27.1-16.7,27.1-35.3c0-128.6,0-257.2,0-385.8C527.6,85,513.8,71.1,491.5,71.1z M210.1,454.4c-22.8,0-45.3,0-68.2,0
		c0-68.8,0-137.4,0-206.4c22.9,0,45.5,0,68.2,0C210.1,316.9,210.1,385.5,210.1,454.4z M214.6,187.6c-1.4,16.5-14.3,29.7-31.5,31.3
		c-2.4,0.2-4.9,0.3-7.4,0.3c-1.8,0-3.5-0.1-5.3-0.3c-2.4-0.2-4.8-0.6-7.1-1.2c-0.8-0.2-1.5-0.4-2.2-0.6c-0.5-0.2-1-0.3-1.4-0.5
		c-0.3-0.1-0.7-0.3-1-0.4c-1-0.4-2-0.9-2.9-1.3c-1.9-1-3.7-2.1-5.3-3.5c-1.8-1.5-3.5-3.1-5-4.9c-0.3-0.4-0.6-0.7-0.9-1.1
		c-0.5-0.6-0.9-1.3-1.3-1.9c-0.3-0.5-0.7-1.1-1-1.6c-0.6-1-1.1-2-1.5-3.1c-0.6-1.4-1.2-2.9-1.6-4.4c-0.1-0.3-0.1-0.5-0.2-0.8
		c-0.8-3.2-1.3-6.5-1.3-9.9c0-11.9,5.4-22.3,14.3-28.6c0.7-0.5,1.4-1,2.2-1.4c4.3-2.6,9.4-4.3,14.9-4.9c4.1-0.4,8.3-0.5,12.5-0.1
		c2.6,0.2,5.2,0.7,7.6,1.3c1.6,0.4,3.1,0.9,4.6,1.5c1.3,0.5,2.5,1.1,3.7,1.8c0.3,0.2,0.6,0.4,1,0.6c2.5,1.5,4.7,3.2,6.6,5.2
		c0.8,0.8,1.5,1.6,2.2,2.5c0.8,1.1,1.6,2.2,2.3,3.4c0.4,0.7,0.8,1.4,1.2,2.2C213.9,173,215.2,180,214.6,187.6z M457.9,454.4
		c-22.7,0-45.2,0-68.4,0c0-1.9,0-3.6,0-5.3c0-34.4,0.1-68.7-0.1-103.1c-0.1-7.6-0.7-15.4-2.4-22.8c-3-13.2-10.5-22.9-24.7-25.4
		c-14.6-2.5-26.9,1.6-36.4,13.3c-6.6,8.2-8.7,17.7-8.7,28c0.1,36.5,0,73.1,0,109.6c0,1.7,0,3.5,0,5.6c-23.2,0-45.7,0-68.5,0
		c0-68.8,0-137.3,0-206.2c22.6,0,45.2,0,68.4,0c0,9,0,18.2,0,27.3c0.3,0.1,0.6,0.1,0.8,0.2c1.2-1.6,2.3-3.2,3.5-4.8
		c13.9-18.9,32.9-27.6,56.1-28c32.5-0.5,60.2,14,73.1,47.4c4.5,11.6,7.1,23.7,7.2,36c0.3,41.7,0.2,83.5,0.3,125.3
		C458.2,452.5,458,453.3,457.9,454.4z"/>
</g>
</svg>
