<?xml version="1.0" encoding="utf-8"?>
<!-- Generator: Adobe Illustrator 22.0.1, SVG Export Plug-In . SVG Version: 6.00 Build 0)  -->
<svg version="1.1" id="meetrex" xmlns="http://www.w3.org/2000/svg" xmlns:xlink="http://www.w3.org/1999/xlink" x="0px" y="0px"
	 viewBox="0 0 306 167.3" style="enable-background:new 0 0 306 167.3;" xml:space="preserve">
<style type="text/css">
	.st0{fill:#808080;}
	.st1{fill:#818181;}
	.st2{fill:#828282;}
	.st3{fill:#838383;}
	.st4{fill:#848484;}
	.st5{fill:#A3A3A3;}
	.st6{fill:#DEDEDE;}
	.st7{fill:#9C9C9C;}
	.st8{fill:#C3C3C3;}
	.st9{fill:#D6D6D6;}
</style>
<g>
	<path class="st0" d="M217,82.9c-3.5-4.7-7.4-9.2-11-13.8c-2.4-3-4.8-6-7.2-9c2.5-4.1,4.9-8.1,6.9-12.3c4.3-8.9,5.9-18.2,5.2-28
		c-0.3-3.5-1-7-2-10.4c-0.2-0.5-0.2-1-0.2-1.6c8,5.9,15.1,12.4,16.3,23.2c1.4,0.3,2.8,0.2,4.1,0.1c6-0.4,12-0.1,18-0.3
		c9.7-0.4,19.3-0.7,29-1.1c3.8-0.2,7.6-0.3,11.3-0.9c2.1-0.3,3.9-1.4,6-1.7c2.4-0.3,4.7-0.1,6.8,1c2.7,1.3,3.7,4.3,1.8,6.4
		c-2,2.2-2,4.8-2.3,7.3c-1.4,10.3-3.8,20.3-8,29.8c-0.9,1.9-2,3.7-3,5.5c-2.5,4.3-6.4,6.1-11.1,6.8c-3.9,0.6-7.8,0.4-11.7,0.3
		c-0.6,0-1.2-0.1-1.8,0c-0.3,0.5,0.2,0.9,0.4,1.3c0.7,1.5,1.3,3.1,1.4,4.8c0,2.6-1.5,5-3.9,5.9c-0.9,0.4-1.1,0.3-2.4-0.2
		c-0.4-0.5-0.6-1.2-0.6-1.8c0.4-3-1-5.3-2.8-7.5c-1.4-1.6-3.1-2.9-4.8-4.1c-1.2-0.8-2.6-0.8-3.9-1.1c-3.3-0.8-6.6-1.5-10-2.3
		c-0.7,2.5-1,5-1.4,7.4c-1.1,6-3.5,11.5-6.2,16.8c-2.7,5.2-6.1,9.9-9.3,14.8c-3.3,4.8-6.1,9.9-8.3,15.3c-0.8,2-1.5,4.1-1.5,6.3
		c0,3.4,1.7,5.7,5,6.3c2.5,0.4,5,0.5,7.4-1.2c3.4-2.4,7.2-3.7,11.5-3.5c4.1,0.2,7.2,2.3,9.8,5.3c4,4.6,4.8,10,3.7,15.8
		c-0.6,0.4-1.2,0.3-1.8,0.3c-11.7,0-23.3,0.1-35,0c-6.7-0.1-13.4-0.6-19.8-3.1c-6.2-2.4-9.7-6.7-10.5-13.3
		c-0.5-4.2-0.1-8.4,0.8-12.5c-0.6-0.5-1-0.1-1.5,0c-5.8,1.5-11.8,2.2-17.7,2.8c-10.2,1-20.3-0.5-30.2-2.4
		c-16.3-3-32.3-7.2-48.2-11.8c-0.4-0.1-0.8-0.2-1.2-0.6c2.6-7.5,2.7-15.2,0.9-23c-0.4,1.6-0.7,3.1-1.1,4.7c-0.4,1.6-0.8,3.1-1.2,4.7
		c-2.2,8.4-4.6,16.7-8.8,24.3c-2.7,4.9-5.6,9.5-9.8,13.3c-0.3,0.3-0.8,0.6-0.9,1.1c0.1,0.4,0.2,0,0.3,0c2.1-0.6,4.1-1.6,6.1-2.4
		c13.3,1.3,18.7,12.6,18.6,19.7c-19.4,0-38.8,0-58.4,0c11.9-24.4,18.1-50.3,22.4-76.8c-3.4-2.8-6.5-5.7-9.3-8.8
		c-7.4-8.3-12.7-17.8-14.7-28.8C24.7,36,27.3,23.1,34.6,11c1-1.7,2.1-3.3,3.4-4.9c0.7,0,0.5,0.4,0.3,0.7c-2,6.2-3.1,12.4-2.9,18.9
		c0.2,9,2.6,17.4,6.9,25.3c6.9,12.5,17.1,21.6,29.3,28.5c10.9,6.1,22.6,9.9,34.9,11.7c6.5,1,13,1.5,19.6,1.3
		c20.3-0.7,39.2-5.9,56.1-17.6c2.9-2,5.7-4,8.6-6.1c8.7,4.7,17.4,9.4,26.1,14.1C216.8,82.9,216.9,83.3,217,82.9z"/>
	<path class="st1" d="M145.7,50.9c1.3,1.9,2.6,3.7,4,5.7c1.4-2,2.7-3.8,4-5.7c2.4,0,4.7,0,7.3,0c-1.4,2-2.6,3.8-3.9,5.6
		c-1.2,1.8-2.4,3.6-3.7,5.4c2.8,4,5.5,7.9,8.3,12c-2.6,0-4.9,0-7.3,0c-1.5-2.1-3-4.3-4.7-6.6c-1.7,2.3-3.2,4.5-4.8,6.6
		c-2.4,0-4.7,0-7.3,0c2.8-4.1,5.6-8,8.3-12c-2.5-3.6-5-7.2-7.6-11C140.9,50.9,143.3,50.9,145.7,50.9z"/>
	<path class="st1" d="M121.4,50.9c4.7,0,9.2,0,13.9,0c0.2,1.6,0.1,3.1,0.1,4.9c-2.7,0-5.4,0-8.1,0c0,1.4,0,2.6,0,4
		c2.3,0,4.6,0,7.1,0c0,1.7,0,3.3,0,5c-2.3,0-4.6,0-6.9,0c-0.4,1.5-0.2,2.8-0.1,4.2c2.6,0.3,5.3,0,8,0.2c0.3,1.5,0.1,3,0.1,4.6
		c-4.6,0-9.2,0-14,0C121.4,66.2,121.4,58.6,121.4,50.9z"/>
	<path class="st1" d="M89.5,31c1.1-1.8,1.7-3.6,2.6-5.3c0.5-0.4,1-0.3,1.7-0.2c0.8,1.7,1.7,3.5,2.7,5.6c1.4-3,2.7-5.7,4-8.4
		c1.3-0.2,2.5-0.1,4,0c-2.2,4.7-4.3,9.3-6.4,13.9c-1,0.2-1.8,0.2-2.6,0c-1-1.5-1.4-3.2-2.4-4.8c-0.8,1.7-1.6,3.3-2.4,4.8
		c-0.9,0.1-1.7,0.2-2.7,0c-2.1-4.5-4.2-9.1-6.4-13.8c1.4,0,2.6,0,4,0C86.8,25.4,88.1,28.1,89.5,31z"/>
	<path class="st1" d="M20.4,13.3c-4.1,10.6-4,21.6-2.5,32.6c-0.2,0-0.4,0-0.4-0.1c-4.5-7.6-6.4-15.5-3.3-24.1c1.3-3.5,3.2-6.6,6.1-9
		C20.5,13,20.5,13.1,20.4,13.3z"/>
	<path class="st1" d="M114.5,22.7c0.1,1,0.1,1.8-0.1,2.8c-1.6,0-3.1,0-4.6,0c-0.4,0.8-0.3,1.5-0.2,2.3c1.3,0.5,2.7,0,4.2,0.3
		c0.3,0.9,0.1,1.8,0.1,2.8c-1.3,0.5-2.7,0-4.1,0.4c-0.3,0.7-0.2,1.5-0.1,2.4c1.6,0,3.1,0,4.7,0c0.5,1,0.2,1.9,0.3,2.9
		c-2.9,0-5.7,0-8.6,0c0-4.6,0-9.2,0-13.9C108.8,22.7,111.6,22.7,114.5,22.7z"/>
	<path class="st1" d="M140.5,25.6c-1.7,0-3.2,0-4.7,0c-0.4,0.8-0.2,1.5-0.2,2.3c1.3,0.4,2.7,0,4.2,0.3c0.3,0.9,0.1,1.9,0.1,2.8
		c-1.4,0.6-2.8,0-4.2,0.4c-0.3,0.7-0.2,1.5,0,2.4c1.6,0,3.1,0,4.7,0c0.3,1,0.2,1.9,0.1,2.9c-2.8,0-5.6,0-8.5,0c0-4.6,0-9.2,0-13.9
		c2.8,0,5.6,0,8.5,0C140.6,23.6,140.6,24.4,140.5,25.6z"/>
	<path class="st1" d="M188.4,22.7c1.4,0,2.6,0,4.1,0c-1.1,2-2.1,3.9-3.3,5.7c-1.4,2.1-2.1,4.3-1.8,6.8c0.1,0.5,0,0.9,0,1.5
		c-1.3,0-2.4,0-3.4,0c-0.3-0.3-0.3-0.7-0.2-0.9c0.5-3.1-0.6-5.7-2.4-8.2c-1-1.4-1.7-3-2.7-4.7c1.5-0.1,2.8-0.1,4.2,0
		c0.9,1.5,1.7,2.9,2.6,4.4C186.8,25.7,187.3,24.1,188.4,22.7z"/>
	<path class="st2" d="M7.7,18c-0.6,2.1-1.4,4.1-1.8,6.2C5.3,27.8,5.3,31.3,6.3,35C1.9,30.8,1.5,23.3,7.7,18L7.7,18z"/>
	<path class="st3" d="M194.4,29.5c0.9,0.2,1.4,0.6,1.3,1.6c-0.1,0.8-0.6,1.3-1.4,1.3c-0.8,0.1-1.5-0.7-1.5-1.5
		C192.9,30,193.5,29.5,194.4,29.5z"/>
	<path class="st4" d="M195.8,35.1c-0.1,1-0.6,1.6-1.5,1.5c-0.8,0-1.3-0.6-1.4-1.4c0-0.9,0.5-1.5,1.4-1.5
		C195.2,33.8,195.6,34.4,195.8,35.1z"/>
	<path class="st5" d="M38.1,6.8c-0.1-0.3,0-0.6-0.3-0.7c0.1-0.5,0.4-0.8,1-1.1C38.6,5.7,38.5,6.3,38.1,6.8z"/>
	<path class="st6" d="M62.2,147.1c-0.2,0.2-0.4,0.4-0.8,0.3c0-0.3,0.2-0.3,0.4-0.3C62,147.1,62.1,147.1,62.2,147.1z"/>
	<path class="st7" d="M20.4,13.3c0-0.2,0-0.3,0-0.5c0.1-0.2,0.2-0.3,0.3-0.1C20.8,13,20.6,13.2,20.4,13.3z"/>
	<path class="st8" d="M217,82.9c0.1,0.1,0.1,0.1,0.2,0.2c-0.3,0.3-0.4,0.1-0.6-0.2C216.8,82.9,216.9,82.9,217,82.9z"/>
	<path class="st9" d="M7.7,18C7.8,17.9,7.8,17.8,7.7,18C7.8,17.9,7.8,17.9,7.7,18L7.7,18z"/>
	<path class="st1" d="M113.3,65.6c0.4-0.5,0.6-0.9,0.9-1.3c3.7-5.3,1-12.3-5.3-13.4c-3.6-0.6-7.4-0.2-11.1-0.1c0,7.8,0,15.3,0,22.9
		c2,0,3.9,0,5.8,0c0.3-2-0.1-4,0.3-6c1.3,0,2.5,0,3.7,0c1.2,2,2.4,4,3.6,6.1c2.2-0.1,4.4,0.2,6.8-0.2
		C116.3,70.9,114.9,68.3,113.3,65.6z M108,61.8c-1.3,0.4-2.7,0.2-4.2,0.2c0-2.1,0-4,0-6.1c1.3,0,2.6-0.1,3.8,0
		c1.5,0.1,2.6,1.4,2.7,2.9C110.4,60.2,109.4,61.4,108,61.8z"/>
	<path class="st1" d="M73.7,22.6c-3.9-0.1-7.1,3.1-7.2,7c0,3.8,3.1,7,7,7c4,0,7.2-3.1,7.1-7C80.7,25.8,77.6,22.7,73.7,22.6z
		 M73.6,33.1c-1.8,0-3.3-1.6-3.4-3.3c0-1.8,1.6-3.5,3.4-3.4c1.8,0,3.4,1.5,3.4,3.3S75.4,33.1,73.6,33.1z"/>
	<path class="st1" d="M60.5,22.7c-2.1-0.2-4.3,0-6.5,0c0,4.8,0,9.3,0,13.8c0.6,0.3,1.1,0.2,1.7,0.2c0.6,0,1.2,0.2,1.8-0.2
		c0.3-1.1-0.2-2.2,0.3-3.4c0.8,0,1.7,0.1,2.5,0c2.6-0.3,4.4-2.4,4.5-5C64.9,25.3,63.2,23,60.5,22.7z M60.4,29.7
		c-0.9,0.2-1.8,0.1-2.7,0.1c0-1.4,0-2.6,0-4c0.9,0,1.7-0.1,2.5,0c1,0.1,1.7,0.9,1.7,1.9C61.9,28.6,61.3,29.4,60.4,29.7z"/>
	<path class="st1" d="M126.8,31.6c2.7-2.8,1.9-8-2.5-8.9c-2.2-0.4-4.5-0.2-6.7-0.1c0,4.8,0,9.4,0,14c1.2,0,2.4,0.2,3.6-0.2
		c0-1.1,0-2.1,0-3.2c0.8-0.3,1.5-0.2,2.3-0.1c0.7,1.1,1.4,2.3,2.1,3.5c1.4,0,2.7,0,4.2,0C128.7,34.9,127.8,33.3,126.8,31.6z
		 M123.8,29.7c-0.9,0.2-1.8,0.1-2.7,0.1c0-1.4,0-2.6,0-4c0.9,0,1.7-0.1,2.5,0c1,0.1,1.7,0.9,1.7,1.9
		C125.4,28.6,124.8,29.4,123.8,29.7z"/>
	<path class="st1" d="M149.7,22.9c-2.1-0.5-4.3-0.1-6.6-0.2c0,4.8,0,9.4,0,14.1c1.9,0,3.7,0.1,5.5,0c3.6-0.2,6.4-3.1,6.6-6.6
		C155.5,26.6,153.2,23.7,149.7,22.9z M149.9,32.7c-1,0.4-2.1,0.2-3.2,0.2c0-2.3,0-4.4,0-6.7c1,0,2-0.1,2.9,0c1.2,0.2,2,1.5,2.1,3.2
		C151.7,30.9,151,32.2,149.9,32.7z"/>
	<path class="st1" d="M176.2,29.4c1.4-3.5,0.2-6.3-3-6.7c-2.2-0.3-4.4-0.2-6.7,0c0,4.7,0,9.3,0,14c2.5,0,4.8,0.1,7.1,0
		c2.1-0.1,3.6-1.7,3.9-3.6C177.8,31.6,177.2,30.5,176.2,29.4z M170.1,25.6c0.6,0,1.2,0,1.8,0c0.7,0.1,1.2,0.6,1.2,1.3
		c0,0.6-0.4,1.2-1.1,1.4c-0.6,0.2-1.2,0.1-1.9,0.1C170.1,27.5,170.1,26.6,170.1,25.6z M172.2,33.8c-0.7,0.2-1.4,0.1-2.1,0.1
		c0-1.1,0-2.1,0-3.1c0.7,0,1.3,0,2,0c0.8,0.1,1.3,0.7,1.4,1.5C173.4,33,173,33.6,172.2,33.8z"/>
</g>
</svg>
