<?xml version="1.0" encoding="utf-8"?>
<!-- Generator: Adobe Illustrator 22.0.1, SVG Export Plug-In . SVG Version: 6.00 Build 0)  -->
<svg version="1.1" id="realtor.com" xmlns="http://www.w3.org/2000/svg" xmlns:xlink="http://www.w3.org/1999/xlink" x="0px"
	 y="0px" viewBox="0 0 600 600" style="enable-background:new 0 0 600 600;" xml:space="preserve">
<style type="text/css">
	.st0{fill:#FFFFFF;}
</style>
<g>
	<path class="st0" d="M314.6,71c-77.3,77.2-154.8,154.4-232.6,232.1c21.4,0,42.6,0,63.9,0c0.1,2.2,0.2,3.7,0.2,5.2
		c0,71.7,0,143.4-0.2,215.2c0,4.1,1.1,5.5,5.3,5.5c105.1-0.1,210.1-0.1,315.2,0c4.3,0,5.7-1.1,5.7-5.6
		c-0.1-71.1-0.1-142.2-0.2-213.3c0-4,1.4-4.8,5-4.8c22.4,0.2,44.8,0.3,67.1,0.3c1.5,0,3-0.2,5.2-0.3
		C470.3,226.5,392.1,148.4,314.6,71z M436.2,255c-0.1,0.6-0.1,1.3-0.2,1.9c-0.3,1.9-0.6,3.8-1.1,5.6c-1.3,4.9-3.3,9.3-6.1,13.1
		c-0.5,0.7-1,1.3-1.5,1.9c-6.3,7.4-15.1,11.4-24,12.1c-0.7,0.1-1.5,0.1-2.3,0.1c-3,0.1-6-0.3-9-0.9c-0.7-0.2-1.5-0.4-2.2-0.6
		c-1.5-0.4-2.9-0.9-4.3-1.5c-1.4-0.6-2.8-1.3-4.1-2c-6-3.5-11.3-8.7-14.9-15.5c-3.3-6.3-5.3-13.2-7.9-19.9c-0.4-1.1-0.7-2.2-1.1-3.2
		c-0.4-1.1-0.7-2.2-1.2-3.2c-1-2.2-2.3-3.3-4.2-3.3c-0.3,0-0.7,0.1-1.1,0.1c-0.6,0.1-1.1,0.4-1.8,0.7c-2.2,1.1-4.3,2.3-6.3,3.7
		c-0.5,0.3-1,0.7-1.4,1.1c-0.9,0.7-1.9,1.5-2.8,2.3c-1.8,1.6-3.5,3.2-5,5c-2,2.2-3.8,4.6-5.5,7.1c-2.1,3-4,6.2-5.7,9.4
		c-2.9,5.3-5.3,10.8-7.5,16.4c-3.4,9-6.1,18.3-8.7,27.6c-0.8,3.2-1.5,6.4-2,9.5c-1,6.4-1.4,12.8-1.6,19.2c-0.2,7.5-0.1,15-0.1,22.5
		c-0.2,22-0.3,44.1-0.1,66.1c0.1,7.3,0.2,14.7,0.3,22c0.1,4,0.6,8,1.4,11.9c0.2,1,0.4,2,0.6,3c0.6,3,1.3,5.9,2,8.9
		c0.3,1.4,0.7,2.6,1.3,3.8c0.3,0.6,0.6,1.2,1,1.7c1.8,2.8,4.3,5,7.5,6.4c1.6,0.7,3.2,1.4,4.8,2.1c3.2,1.4,6.4,2.7,9.7,3.9
		c0.8,0.3,1.6,0.6,2.5,0.8s1.7,0.5,2.5,0.8c0.5,0.2,1,0.3,1.4,0.5c0.4,0.2,0.7,0.4,1,0.6c0.3,0.2,0.5,0.5,0.7,0.8
		c0.3,0.4,0.5,0.8,0.6,1.3c0.3,1.1,0.2,2.3,0.1,3.7c0,0.7-0.1,1.3-0.3,1.7c-0.1,0.3-0.3,0.5-0.5,0.7c-0.5,0.4-1.1,0.5-1.8,0.5
		c-0.1,0-0.3,0-0.4,0c-0.1,0-0.3,0-0.4,0c-0.6-0.1-1.1-0.1-1.6-0.1c-45.1,0.1-90.2,0.1-135.2,0.1l0,0l0,0c-1.8,0-3.1,0-4-0.3
		c-1.1-0.3-1.6-0.8-1.7-1.8c-0.1-0.9,0-2.1,0.3-3.7c0.1-0.8,0.8-1.7,1.7-2.4c0.5-0.4,1.1-0.8,1.6-1c1.3-0.5,2.6-1.1,3.9-1.6
		c3.9-1.5,7.9-2.9,11.9-4.4c0.5-0.2,1-0.4,1.5-0.6c1-0.4,1.9-0.9,2.8-1.4c0.9-0.5,1.7-1.1,2.4-1.7c0.7-0.6,1.4-1.3,2.1-2
		c2.9-3.2,4.7-7.2,5.8-12c3.9-17.3,3.4-34.8,3.4-52.3c0-43.1,0-86.2-0.2-129.3c-0.1-15.7-0.1-31.4-1.7-46.9c-0.3-2.5-0.8-4.9-1.6-7
		c-1.1-2.8-2.6-5.2-4.5-7.3c-0.9-1-2-2-3.1-2.8c-1.7-1.3-3.6-2.3-5.7-3.2c-2.8-1.1-5.9-1.9-9.3-2.4c-2.1-0.3-5.1,0.4-6.2-2
		c-0.2-0.4-0.3-0.8-0.4-1.3c0-0.3-0.1-0.6-0.1-0.9c-0.1-5.4,0-5.7,5.4-5.7l0,0l0,0c29.4,0,58.8,0,88.2,0.1c1.2,0,2.2,0,3.2,0.1
		c2.4,0.2,4.1,0.6,5.3,1.5c2.2,1.6,2.7,4.5,2.6,9.7c0,1.7,0,3.4-0.1,5.1c0,3.4,0,6.8,0,10.2c0,3.4,0,6.8,0,10.1c0,3.3,0,6.7,0,9.9
		c0,1.6,0,3.3,0,4.9c0.8-1,1.6-2.1,2.4-3.2c1.6-2.1,3.2-4.3,4.8-6.6c2.4-3.3,4.8-6.6,7.4-9.8c1.7-2.1,3.6-4.2,5.5-6.1
		c5.1-5.1,10.6-9.8,16.3-14c0.6-0.4,1.1-0.8,1.7-1.2c1.2-0.8,2.3-1.6,3.5-2.4c4.7-3.1,9.7-5.7,14.9-8c1.3-0.6,2.6-1.1,3.9-1.6
		c3.3-1.2,6.7-2.3,10.2-3.2c1.4-0.3,2.8-0.7,4.3-0.9c1.4-0.3,2.9-0.5,4.4-0.7c16.7-2.4,32.3,0.7,44.2,14.1c2.3,2.6,4.2,5.7,5.7,9.1
		c0.5,1.1,1,2.3,1.4,3.5c0.4,1.2,0.8,2.4,1.1,3.6c0.6,2.5,1.1,5,1.4,7.6c0.2,1.9,0.3,3.9,0.3,5.8C436.5,251.1,436.4,253,436.2,255z"
		/>
</g>
</svg>
