<?xml version="1.0" encoding="utf-8"?>
<!-- Generator: Adobe Illustrator 22.0.1, SVG Export Plug-In . SVG Version: 6.00 Build 0)  -->
<svg version="1.1" id="yelp" xmlns="http://www.w3.org/2000/svg" xmlns:xlink="http://www.w3.org/1999/xlink" x="0px" y="0px"
	 viewBox="0 0 600 600" style="enable-background:new 0 0 600 600;" xml:space="preserve">
<style type="text/css">
	.st0{fill:#FFFFFF;}
</style>
<g>
	<path class="st0" d="M134.3,291.5c-7.5,11.9-10.6,49.5-8,74.4c0.9,8.2,2.4,15.1,4.6,19.2c3,5.7,8,9,13.7,9.2
		c3.7,0.2,6-0.5,74.7-22.6c0,0,30.5-9.8,30.7-9.8c7.6-2,12.8-9,13.3-17.9c0.5-9.2-4.2-17.3-12.1-20.2c0,0-21.5-8.8-21.6-8.8
		c-73.9-30.5-77.2-31.7-80.9-31.7C142.9,283.2,137.9,286,134.3,291.5 M299.6,518.6c1.2-3.5,1.4-5.8,1.5-78.1c0,0,0.2-31.9,0.2-32.2
		c0.5-7.8-4.6-15-12.8-18.2c-8.6-3.3-17.7-1.2-22.9,5.2c0,0-15.1,17.9-15.1,17.9c-51.8,60.8-53.9,63.6-55.2,67.2
		c-0.8,2.1-1.1,4.4-0.8,6.6c0.3,3.2,1.8,6.4,4.2,9.4c12,14.3,69.6,35.4,88,32.3C293,527.6,297.7,524,299.6,518.6 M416.4,493.5
		c17.4-6.9,55.2-55.1,57.9-73.6c0.9-6.4-1.1-12-5.5-15.6c-2.9-2.2-5.1-3.1-73.9-25.6c0,0-30.1-9.9-30.5-10.1
		c-7.3-2.8-15.6-0.2-21.2,6.7c-5.8,7.1-6.7,16.5-2,23.5l12.1,19.7c40.8,66.3,43.9,70.9,46.9,73.2
		C404.6,495.3,410.4,495.9,416.4,493.5 M380.9,322.9C459,304,462,303,465.1,301c4.7-3.2,7.1-8.5,6.7-15c0-0.2,0-0.4,0-0.6
		c-2-19.2-35.6-69.1-52.2-77.2c-5.9-2.8-11.8-2.6-16.6,0.6c-3,2-5.2,4.9-47,62.2c0,0-18.9,25.7-19.1,26c-5,6.1-5,14.7-0.2,22.2
		c5,7.7,13.6,11.5,21.4,9.3c0,0-0.3,0.6-0.4,0.6C361.5,327.6,368.4,325.9,380.9,322.9 M302.5,258.4c-1.4-31-10.7-168.8-11.8-175.2
		c-1.6-5.8-6.1-9.9-12.6-11.6c-20-4.9-96.2,16.4-110.3,31c-4.6,4.7-6.2,10.5-4.9,15.7c2.2,4.6,96.7,153.1,96.7,153.1
		c13.9,22.6,25.4,19.1,29.1,17.9C292.5,288.4,303.8,284.8,302.5,258.4"/>
</g>
</svg>
