<?xml version="1.0" encoding="utf-8"?>
<!-- Generator: Adobe Illustrator 22.0.1, SVG Export Plug-In . SVG Version: 6.00 Build 0)  -->
<svg version="1.1" id="zillow" xmlns="http://www.w3.org/2000/svg" xmlns:xlink="http://www.w3.org/1999/xlink" x="0px" y="0px"
	 viewBox="0 0 600 600" style="enable-background:new 0 0 600 600;" xml:space="preserve">
<style type="text/css">
	.st0{fill:#FFFFFF;}
</style>
<g>
	<g>
		<path class="st0" d="M36.8,529c1.5-4.3,2.5-7.5,3.6-10.6c6.3-17.6,12.6-35.2,18.7-52.8c1.2-3.5,3.3-5.2,6.5-6.6
			c37.1-16.5,75.1-30.3,114-41.9c22.5-6.7,45.1-13.5,68-18.7c32.9-7.5,66.1-14,99.3-20.2c18.7-3.5,37.7-5.6,56.5-7.9
			c13.7-1.7,27.5-2.7,41.3-4c3.5-0.3,6.9-0.6,11.6-1.1c-1.9,6.1-3.4,11.3-5.2,16.3c-6.8,19.6-13.9,39.2-20.5,58.9
			c-1.2,3.6-3,5-6.5,5.3c-13.5,1-27.1,1.8-40.6,3.3c-15.5,1.7-31.1,3.7-46.5,6.1c-25,4-50,8-74.8,12.8c-22.5,4.4-44.9,9.5-67.3,14.9
			c-48.8,11.7-97.1,25.1-144.5,41.5C46.3,525.6,42.2,527.1,36.8,529z"/>
		<path class="st0" d="M586.4,255.9c-5.2,0.6-10.5,1.2-15.7,1.8c-12.3,1.3-24.6,2.6-37,3.8c-9.1,0.9-18.2,1.7-27.3,2.5
			c-3.2,0.3-6.5,0.5-9.7,0.9c-2.8,0.3-4.8,1.4-5.9,4.3c-4.5,12-9.3,23.9-13.8,35.8c-0.9,2.5-1.9,3.7-4.9,3.9
			c-16.9,1.6-33.8,3.2-50.5,5.5c-16.1,2.2-32.3,4.8-48.2,8c-25.6,5.1-51.2,10.4-76.5,16.5c-18.3,4.4-36.1,10.4-54.2,15.7
			c-1.3,0.4-2.6,0.8-4,1.2c-0.4-0.5-0.8-0.9-1.1-1.4c2.9-2.5,5.9-4.8,8.7-7.5c8.5-8.2,16.9-16.4,25.2-24.8
			c57-56.7,113.9-113.5,170.8-170.3c2.3-2.3,3.7-2.5,6.5-0.6c43.1,29.5,84.5,61.1,125.6,93.2c4.2,3.3,8.2,6.8,12.3,10.2
			C586.6,255.1,586.5,255.5,586.4,255.9z"/>
		<path class="st0" d="M67.9,441.5c15.2-41.3,30.5-82.7,46-124.8c-34.1,4.2-67.1,10.6-100.1,17.5c-0.2-0.4-0.3-0.7-0.5-1.1
			c0.9-1,1.7-2.1,2.7-3.1c14.6-14.9,29.1-29.7,43.7-44.6c3.1-3.2,5.9-6.7,9.2-9.6c2.6-2.3,5.5-4.5,8.7-5.7
			c25.6-9.2,51.1-18.6,76.9-26.9c25-8,50.2-15.3,75.6-22.1c31.8-8.5,63.7-16.3,95.6-24.4c0.5-0.1,1,0,1.8,0.5
			c-86.6,81.3-174,161.7-258.5,245C68.6,441.9,68.3,441.7,67.9,441.5z"/>
		<path class="st0" d="M153.8,192.9c1.5-1.2,2.9-2.5,4.4-3.6c26.3-19.8,52.5-39.8,79-59.3c20.9-15.3,42.2-30,63.4-44.7
			c7-4.8,14.6-8.7,21.8-13.2c2.5-1.5,4.5-1.5,6.9,0c13.1,8.2,26.3,16.1,39.2,24.6c20.1,13.2,39.9,26.9,59.8,40.3
			c1,0.7,2,1.5,3.8,2.9C336.8,147.2,245,167.6,153.8,192.9z"/>
	</g>
</g>
</svg>
